
        <svg xmlns="http://www.w3.org/2000/svg" xmlns:xlink="http://www.w3.org/1999/xlink" version="1.1" width="3156.657963446475" height="1425.5874673629241" viewBox="0 0 3156.657963446475 1425.5874673629241">
			
			<g transform="scale(7.83289817232376) translate(10, 10)">
				<defs id="SvgjsDefs17378"/><g id="SvgjsG17379" featureKey="symbolFeature-0" transform="matrix(0.8442746402112852,0,0,0.8442746402112852,153.04317715789813,-10.934197825080714)" fill="#000"><g xmlns="http://www.w3.org/2000/svg"><path d="M47.49,15.479c18.524,0,33.596,15.07,33.596,33.594c0,4.146-0.762,8.115-2.143,11.787l0.896,4.265   c2.412-4.84,3.775-10.289,3.775-16.052c0-19.918-16.205-36.122-36.124-36.122c-15.062,0-27.994,9.27-33.406,22.401l2.414,0.769   C21.579,24.009,33.556,15.479,47.49,15.479"/><path d="M47.49,82.666c-1.04,0-2.068-0.056-3.086-0.148l-4.688,1.825c2.506,0.552,5.104,0.853,7.773,0.853   c5.54,0,10.791-1.257,15.487-3.495l-3.424-1.283C55.807,81.864,51.742,82.666,47.49,82.666"/><rect x="13.26" y="73.248" transform="matrix(-0.9312 -0.3644 0.3644 -0.9312 13.8243 150.3567)" width="15.677" height="1.253"/><rect x="57.473" y="72.972" transform="matrix(0.9365 0.3507 -0.3507 0.9365 29.9852 -18.3802)" width="16.532" height="1.249"/><rect x="34.877" y="73.166" transform="matrix(-0.933 0.3599 -0.3599 -0.933 109.0942 127.2707)" width="15.642" height="1.251"/><path d="M59.4,42.228c-0.348,0.729-0.744,1.446-1.169,2.157l11.701,3.481l6.794,32.412l-21.021-7.874l-1.472-21.723   c-0.113,0.197-0.229,0.394-0.35,0.594c-0.2,0.334-0.402,0.673-0.588,1.012c-0.414,0.707-0.814,1.398-1.218,2.095l1.224,18.07   l-20.345,7.919l2.278-32.542l3.643-1.121c-0.436-0.699-0.87-1.404-1.284-2.117l-3.486,1.074l-18.482-5.882L8.24,74.002   l23.557,9.216l0.13-0.333l0.155,0.401l22.477-8.748l25.415,9.519l-7.984-38.085L59.4,42.228z M30.566,80.16L11.02,72.511   l6.395-29.641l15.418,4.906L30.566,80.16z"/><path d="M58.769,35.967c0-0.392-0.487-1.769-0.514-1.853c-0.113-0.421-0.341-0.872-0.511-1.266c-2.021-4.858-6.439-6.6-10.008-6.6   c-4.775,0-10.035,3.202-10.738,9.804v1.347c0,0.057,0.02,0.562,0.047,0.816c0.394,3.144,2.876,6.488,4.73,9.634   c1.994,3.37,4.062,6.686,6.114,10c1.266-2.163,2.525-4.354,3.76-6.461c0.338-0.619,0.729-1.235,1.064-1.824   c0.224-0.396,0.655-0.787,0.851-1.152c1.994-3.652,5.204-7.332,5.204-10.956V35.967z M47.858,41.005   c-2.303,0-4.169-1.866-4.169-4.169c0-2.303,1.866-4.171,4.169-4.171s4.17,1.868,4.17,4.171   C52.028,39.139,50.161,41.005,47.858,41.005"/></g></g><g id="SvgjsG17380" featureKey="nameContainer" transform="matrix(1,0,0,1,0,81)" fill="#000">    <path xmlns="http://www.w3.org/2000/svg" fill-rule="nonzero" d="             M0,0             H383             V81             H0,0             z             M4,4             v73             h375             v-73             z     "/></g><g id="SvgjsG17381" featureKey="nameFeature-0" transform="matrix(1.9075645843456723,0,0,1.9075645843456723,16.99999818080465,72.10923044543799)" fill="#000"><path d="M27.44 34.4 l0 5.6 l-11.2 0 l0 -5.6 l2.64 0 l-0.84 -2.8 l-8.64 0 l-0.84 2.8 l2.64 0 l0 5.6 l-11.2 0 l0 -5.6 l2.72 0 l6.72 -22.4 l8.56 0 l6.72 22.4 l2.72 0 z M16.36 26 l-2.52 -8.4 l-0.24 0 l-2.52 8.4 l5.28 0 z M54.84 34.4 l-0.000078124 5.6 l-11.2 0 l0 -5.6 l2.28 0 l-2.56 -4.48 l-5.04 0 l0 4.48 l2.8 0 l0 5.6 l-11.2 0 l0 -5.6 l2.8 0 l0 -16.8 l-2.8 0 l0 -5.6 l13.28 0 c1.2267 0.02668 2.3734 0.28 3.44 0.76 s2 1.12 2.8 1.92 s1.4333 1.74 1.9 2.82 s0.7 2.2333 0.7 3.46 c0 1.44 -0.30668 2.76 -0.92 3.96 s-1.4266 2.2133 -2.44 3.04 l3.72 6.44 l2.44 0 z M38.32 24.32 l4.76 -0.000078124 c0.93332 0 1.7266 -0.32668 2.38 -0.98 s0.98 -1.4466 0.98 -2.38 s-0.32668 -1.7266 -0.98 -2.38 s-1.4466 -0.98 -2.38 -0.98 l-4.76 0 l0 6.72 z M57.400000000000006 17.6 l-2.68 0 l0 -5.6 l11.2 0 l0 5.6 l-2.64 0 l4.6 14.2 l4.6 -14.2 l-2.64 0 l0 -5.6 l11.2 0 l0 5.6 l-2.68 0 l-7.28 22.4 l-6.4 0 z M105.8 34.4 l0 5.6 l-11.2 0 l0 -5.6 l2.64 0 l-0.84 -2.8 l-8.64 0 l-0.84 2.8 l2.64 0 l0 5.6 l-11.2 0 l0 -5.6 l2.72 0 l6.72 -22.4 l8.56 0 l6.72 22.4 l2.72 0 z M94.72 26 l-2.52 -8.4 l-0.24 0 l-2.52 8.4 l5.28 0 z M125.08 21.8 l0 -1.4 c0 -0.77332 -0.27332 -1.4333 -0.82 -1.98 s-1.2067 -0.82 -1.98 -0.82 l-5.6 0 c-0.77332 0 -1.4333 0.27332 -1.98 0.82 s-0.82 1.2067 -0.82 1.98 l0 11.2 c0 0.77332 0.27332 1.4333 0.82 1.98 s1.2067 0.82 1.98 0.82 l5.6 0 c0.77332 0 1.4333 -0.27332 1.98 -0.82 s0.82 -1.2067 0.82 -1.98 l0 -1.4 l5.6 0 l0 1.4 c0 1.1733 -0.22 2.2666 -0.66 3.28 s-1.04 1.9 -1.8 2.66 s-1.6533 1.36 -2.68 1.8 s-2.1134 0.66 -3.26 0.66 l-5.6 0 c-1.1733 0 -2.2666 -0.22 -3.28 -0.66 s-1.9 -1.04 -2.66 -1.8 s-1.36 -1.6467 -1.8 -2.66 s-0.66 -2.1066 -0.66 -3.28 l0 -11.2 c0 -1.1467 0.22 -2.2334 0.66 -3.26 s1.04 -1.92 1.8 -2.68 s1.6467 -1.36 2.66 -1.8 s2.1066 -0.66 3.28 -0.66 l5.6 0 c1.1467 0 2.2334 0.22 3.26 0.66 s1.92 1.04 2.68 1.8 s1.36 1.6533 1.8 2.68 s0.66 2.1134 0.66 3.26 l0 1.4 l-5.6 0 z M160.36 34.4 l0 5.6 l-11.2 0 l0 -5.6 l2.64 0 l-0.84 -2.8 l-8.64 0 l-0.84 2.8 l2.64 0 l0 5.6 l-11.2 0 l0 -5.6 l2.72 0 l6.72 -22.4 l8.56 0 l6.72 22.4 l2.72 0 z M149.28000000000003 26 l-2.52 -8.4 l-0.24 0 l-2.52 8.4 l5.28 0 z M173.24000000000004 29.119999999999997 l0 5.28 l2.8 0 l0 5.6 l-11.2 0 l0 -5.6 l2.8 0 l0 -5.28 l-7.92 -11.52 l-2.28 0 l0 -5.6 l11.2 0 l0 5.6 l-2.12 0 l3.92 5.72 l3.96 -5.72 l-2.12 0 l0 -5.6 l11.2 0 l0 5.6 l-2.28 0 z"/></g>
			</g>
		</svg>
	